<svg width="30" height="30" fill="none" xmlns="http://www.w3.org/2000/svg"><path d="M11 12.333H1.667A1.334 1.334 0 01.333 11V1.667A1.333 1.333 0 011.667.333H11a1.333 1.333 0 011.334 1.334V11A1.334 1.334 0 0111 12.333zM11 29.667H1.667a1.333 1.333 0 01-1.334-1.334V19a1.333 1.333 0 011.334-1.333H11A1.333 1.333 0 0112.334 19v9.333A1.333 1.333 0 0111 29.667z" fill="#8C30F5"/><path d="M16.334 1.667h13.333v2.666H16.333V1.667zM29.667 19H16.333v2.667h13.334V19z" fill="#2EC5CE"/><path d="M29.667 25.667H16.333v2.666h13.334v-2.666zM29.667 8.333H16.333V11h13.334V8.333z" fill="#D6B1FF"/></svg>