<svg width="162" height="48" fill="none" xmlns="http://www.w3.org/2000/svg"><g clip-path="url(#clip0)"><path d="M149.099 0H12.908c-.496 0-.987 0-1.482.002-.415.003-.826.01-1.244.016-.91.009-1.816.08-2.713.212a9.85 9.85 0 00-2.573.752 8.753 8.753 0 00-2.192 1.414A7.623 7.623 0 001.11 4.342a7.312 7.312 0 00-.846 2.284 13.87 13.87 0 00-.242 2.402c-.013.368-.014.737-.021 1.105V37.87c.007.373.008.734.02 1.107.011.805.092 1.608.243 2.402.149.795.434 1.566.846 2.285.41.718.95 1.372 1.595 1.937.64.572 1.38 1.05 2.192 1.415a9.9 9.9 0 002.573.757c.897.13 1.804.201 2.713.212.418.008.83.013 1.244.013.495.002.986.002 1.482.002h136.191c.487 0 .981 0 1.468-.002.412 0 .835-.005 1.248-.013.907-.01 1.812-.081 2.707-.212.899-.138 1.77-.393 2.584-.757a8.544 8.544 0 002.189-1.415 7.783 7.783 0 001.6-1.937c.409-.72.691-1.49.838-2.285.151-.794.235-1.597.251-2.402.005-.373.005-.734.005-1.107.011-.436.011-.87.011-1.312V11.443c0-.44 0-.875-.011-1.31 0-.368 0-.737-.005-1.105-.016-.805-.1-1.608-.251-2.402a7.331 7.331 0 00-.838-2.284c-.836-1.444-2.161-2.619-3.789-3.36a10.002 10.002 0 00-2.584-.753c-.895-.132-1.8-.203-2.707-.212-.413-.005-.836-.013-1.248-.015C150.08 0 149.586 0 149.099 0z" fill="#A6A6A6"/><path d="M11.316 46.953c-.413 0-.816-.004-1.226-.012-.85-.01-1.697-.076-2.535-.196a8.718 8.718 0 01-2.247-.658 7.364 7.364 0 01-1.894-1.22 6.488 6.488 0 01-1.384-1.676 6.331 6.331 0 01-.736-1.99 13.234 13.234 0 01-.226-2.25c-.009-.253-.02-1.096-.02-1.096V10.13s.012-.83.02-1.074c.01-.753.085-1.504.224-2.247.13-.694.378-1.367.737-1.995a6.548 6.548 0 011.377-1.677 7.58 7.58 0 011.902-1.228 8.631 8.631 0 012.242-.652 19.233 19.233 0 012.543-.197l1.224-.015h139.367l1.238.015c.845.01 1.687.074 2.521.195.788.119 1.551.34 2.266.658 1.407.642 2.552 1.657 3.275 2.904.353.624.598 1.291.726 1.98.14.748.219 1.506.235 2.265.004.34.004.705.004 1.068.011.45.011.879.011 1.31v25.12c0 .436 0 .862-.011 1.29 0 .391 0 .748-.005 1.117a13.54 13.54 0 01-.232 2.224 6.326 6.326 0 01-.732 2.005 6.7 6.7 0 01-1.377 1.663 7.37 7.37 0 01-1.898 1.227 8.693 8.693 0 01-2.262.66c-.839.121-1.686.187-2.535.196-.397.008-.813.012-1.217.012l-1.47.003-137.905-.003z" fill="#000"/><path d="M39.357 24.36a5.938 5.938 0 012.828-4.982 6.077 6.077 0 00-4.79-2.59c-2.015-.21-3.968 1.207-4.995 1.207-1.047 0-2.628-1.185-4.33-1.15a6.378 6.378 0 00-5.368 3.273c-2.32 4.018-.59 9.924 1.634 13.172 1.112 1.59 2.412 3.367 4.113 3.304 1.664-.07 2.286-1.062 4.295-1.062 1.99 0 2.574 1.062 4.31 1.022 1.785-.03 2.91-1.598 3.984-3.203a13.157 13.157 0 001.822-3.711 5.737 5.737 0 01-3.503-5.28zM36.079 14.653a5.847 5.847 0 001.337-4.189 5.95 5.95 0 00-3.849 1.992 5.564 5.564 0 00-1.372 4.033 4.918 4.918 0 003.884-1.836zM60.397 32.568h-5.68l-1.364 4.027h-2.406l5.38-14.901h2.5l5.38 14.901H61.76l-1.363-4.027zm-5.092-1.86h4.502l-2.22-6.536h-.061l-2.221 6.537zM75.826 31.163c0 3.377-1.807 5.546-4.534 5.546a3.683 3.683 0 01-3.418-1.901h-.052v5.381h-2.23V25.731h2.158v1.807h.041a3.854 3.854 0 013.46-1.921c2.757 0 4.575 2.18 4.575 5.546zm-2.292 0c0-2.2-1.137-3.645-2.872-3.645-1.703 0-2.85 1.476-2.85 3.645 0 2.19 1.147 3.656 2.85 3.656 1.735 0 2.872-1.436 2.872-3.656zM87.783 31.163c0 3.377-1.807 5.546-4.534 5.546a3.683 3.683 0 01-3.418-1.901h-.052v5.381h-2.23V25.731h2.159v1.807h.04a3.854 3.854 0 013.46-1.921c2.758 0 4.575 2.18 4.575 5.546zm-2.292 0c0-2.2-1.137-3.645-2.871-3.645-1.704 0-2.85 1.476-2.85 3.645 0 2.19 1.146 3.656 2.85 3.656 1.734 0 2.871-1.436 2.871-3.656zM95.687 32.443c.165 1.478 1.6 2.448 3.562 2.448 1.88 0 3.232-.97 3.232-2.303 0-1.156-.815-1.849-2.747-2.323l-1.93-.466c-2.737-.66-4.008-1.94-4.008-4.017 0-2.57 2.241-4.337 5.423-4.337 3.148 0 5.307 1.766 5.38 4.337h-2.251c-.135-1.487-1.364-2.385-3.161-2.385-1.796 0-3.026.909-3.026 2.23 0 1.054.785 1.674 2.706 2.149l1.642.403c3.057.723 4.328 1.95 4.328 4.13 0 2.788-2.221 4.535-5.753 4.535-3.305 0-5.536-1.706-5.68-4.4h2.283zM109.649 23.16v2.57h2.066v1.767h-2.066v5.99c0 .93.414 1.363 1.322 1.363a6.98 6.98 0 00.734-.051v1.755c-.408.076-.823.111-1.239.103-2.199 0-3.057-.826-3.057-2.933v-6.227h-1.58V25.73h1.58V23.16h2.24zM112.912 31.164c0-3.419 2.013-5.567 5.153-5.567 3.15 0 5.154 2.148 5.154 5.567 0 3.427-1.994 5.566-5.154 5.566s-5.153-2.139-5.153-5.566zm8.034 0c0-2.345-1.074-3.73-2.881-3.73-1.807 0-2.881 1.395-2.881 3.73 0 2.354 1.074 3.727 2.881 3.727 1.807 0 2.881-1.373 2.881-3.727zM125.057 25.73h2.127v1.85h.052a2.59 2.59 0 012.613-1.963c.257-.001.513.027.764.083v2.086a3.117 3.117 0 00-1.002-.135 2.247 2.247 0 00-2.324 2.5v6.444h-2.23V25.731zM140.895 33.404c-.3 1.972-2.221 3.326-4.678 3.326-3.161 0-5.122-2.118-5.122-5.515 0-3.408 1.972-5.618 5.028-5.618 3.006 0 4.896 2.065 4.896 5.36v.763h-7.673v.135a2.823 2.823 0 00.767 2.198 2.822 2.822 0 002.156.88 2.455 2.455 0 002.509-1.529h2.117zm-7.539-3.242h5.432a2.606 2.606 0 00-.73-1.961 2.607 2.607 0 00-1.935-.797 2.749 2.749 0 00-2.767 2.758zM55.026 10.477a3.168 3.168 0 013.369 3.558c0 2.287-1.236 3.602-3.37 3.602H52.44v-7.16h2.586zm-1.474 6.148h1.35a2.25 2.25 0 002.36-2.575 2.257 2.257 0 00-2.36-2.561h-1.35v5.136zM59.651 14.933a2.56 2.56 0 115.097 0 2.56 2.56 0 11-5.097 0zm4 0c0-1.171-.526-1.856-1.45-1.856-.927 0-1.448.685-1.448 1.856 0 1.18.521 1.86 1.448 1.86.924 0 1.45-.684 1.45-1.86zM71.522 17.637h-1.106l-1.117-3.98h-.084l-1.112 3.98h-1.096l-1.49-5.403H66.6l.968 4.123h.08l1.11-4.123h1.024l1.11 4.123h.085l.963-4.123h1.067l-1.484 5.403zM74.259 12.234h1.026v.858h.08a1.618 1.618 0 011.613-.963 1.759 1.759 0 011.87 2.01v3.498H77.78v-3.23c0-.868-.377-1.3-1.166-1.3a1.24 1.24 0 00-1.29 1.369v3.161H74.26v-5.403zM80.547 10.124h1.066v7.513h-1.066v-7.513zM83.096 14.933a2.56 2.56 0 115.097 0 2.56 2.56 0 01-4.445 1.969 2.558 2.558 0 01-.653-1.969zm4 0c0-1.171-.527-1.856-1.45-1.856-.927 0-1.449.685-1.449 1.856 0 1.18.522 1.86 1.448 1.86.924 0 1.45-.684 1.45-1.86zM89.315 16.11c0-.974.725-1.534 2.01-1.614l1.464-.084v-.467c0-.57-.377-.893-1.106-.893-.596 0-1.008.219-1.127.6h-1.032c.109-.927.982-1.523 2.208-1.523 1.355 0 2.119.675 2.119 1.816v3.692h-1.027v-.76h-.084a1.817 1.817 0 01-1.623.85 1.633 1.633 0 01-1.802-1.618zm3.474-.463v-.451l-1.32.084c-.744.05-1.081.303-1.081.78 0 .486.422.769 1.002.769a1.274 1.274 0 001.399-1.182zM95.252 14.933c0-1.707.878-2.789 2.243-2.789a1.781 1.781 0 011.657.948h.08v-2.968h1.066v7.513h-1.022v-.854h-.084a1.875 1.875 0 01-1.697.943c-1.375 0-2.243-1.081-2.243-2.793zm1.102 0c0 1.146.54 1.836 1.443 1.836.9 0 1.455-.7 1.455-1.831 0-1.126-.562-1.836-1.455-1.836-.897 0-1.444.694-1.444 1.831zM104.71 14.933a2.553 2.553 0 01.654-1.966 2.564 2.564 0 012.93-.619 2.564 2.564 0 011.513 2.585 2.576 2.576 0 01-.652 1.969 2.558 2.558 0 01-2.933.62 2.558 2.558 0 01-1.512-2.589zm4 0c0-1.171-.526-1.856-1.45-1.856-.927 0-1.448.685-1.448 1.856 0 1.18.521 1.86 1.448 1.86.924 0 1.45-.684 1.45-1.86zM111.238 12.234h1.026v.858h.08a1.616 1.616 0 011.613-.963 1.76 1.76 0 011.87 2.01v3.498h-1.067v-3.23c0-.868-.377-1.3-1.166-1.3a1.24 1.24 0 00-1.29 1.369v3.161h-1.066v-5.403zM121.853 10.888v1.37h1.17v.899h-1.17v2.778c0 .566.233.814.764.814.136 0 .271-.009.406-.025v.889a3.483 3.483 0 01-.58.054c-1.186 0-1.658-.417-1.658-1.459v-3.051h-.858v-.899h.858v-1.37h1.068zM124.48 10.124h1.057v2.978h.084a1.663 1.663 0 011.648-.968 1.782 1.782 0 011.861 2.014v3.49h-1.068v-3.226c0-.864-.402-1.3-1.155-1.3a1.26 1.26 0 00-1.29.829 1.26 1.26 0 00-.071.54v3.156h-1.066v-7.513zM135.348 16.178a2.195 2.195 0 01-2.342 1.563 2.45 2.45 0 01-1.893-.816 2.448 2.448 0 01-.603-1.973 2.495 2.495 0 012.492-2.823c1.503 0 2.41 1.027 2.41 2.724v.372h-3.815v.06a1.422 1.422 0 00.86 1.432c.183.079.38.118.579.116a1.294 1.294 0 001.285-.655h1.027zm-3.751-1.741h2.729a1.313 1.313 0 00-.355-.995 1.302 1.302 0 00-.975-.405 1.375 1.375 0 00-.995.405 1.379 1.379 0 00-.404.995z" fill="#fff"/></g><defs><clipPath id="clip0"><path fill="#fff" d="M0 0h162v48H0z"/></clipPath></defs></svg>