<svg width="32" height="32" fill="none" xmlns="http://www.w3.org/2000/svg"><path fill-rule="evenodd" clip-rule="evenodd" d="M0 16C0 7.163 7.163 0 16 0s16 7.163 16 16-7.163 16-16 16S0 24.837 0 16z" fill="#EA4C89"/><path fill-rule="evenodd" clip-rule="evenodd" d="M24.534 15.988a8.536 8.536 0 01-.672 3.317 8.595 8.595 0 01-3.09 3.748 8.612 8.612 0 01-1.45.786 8.577 8.577 0 01-6.644 0 8.625 8.625 0 01-1.45-.786 8.598 8.598 0 01-3.09-3.748 8.492 8.492 0 01-.499-5.032 8.472 8.472 0 011.285-3.05 8.602 8.602 0 012.304-2.3A8.452 8.452 0 0114.28 7.64a8.599 8.599 0 015.04.496 8.565 8.565 0 014.54 4.535 8.527 8.527 0 01.672 3.317zM12.89 9.406a7.288 7.288 0 00-4.022 5.082c.193.001 3.23.04 6.728-.889a43.814 43.814 0 00-2.706-4.193zm3.31 5.314c-3.752 1.122-7.353 1.04-7.482 1.036-.002.078-.006.154-.006.232a7.24 7.24 0 001.867 4.863c-.002-.004 1.992-3.537 5.925-4.807.095-.032.192-.06.287-.088a24.583 24.583 0 00-.59-1.236zm4.613-4.194A7.258 7.258 0 0016 8.713c-.592 0-1.167.071-1.717.203.109.147 1.478 1.96 2.724 4.245 2.75-1.03 3.787-2.607 3.805-2.633zm-3.525 6.636l-.048.016c-4.3 1.497-5.704 4.513-5.72 4.546a7.278 7.278 0 004.48 1.54c1.009 0 1.97-.205 2.845-.576-.108-.636-.531-2.864-1.557-5.526zm2.784 4.861a7.278 7.278 0 003.123-4.882c-.15-.048-2.19-.692-4.541-.316.956 2.623 1.344 4.76 1.418 5.198zm-2.504-7.778a23.017 23.017 0 01.641 1.432c2.504-.315 4.97.215 5.076.236a7.233 7.233 0 00-1.657-4.548c-.014.02-1.183 1.706-4.06 2.88z" fill="#fff"/></svg>