<svg width="175" height="160" fill="none" xmlns="http://www.w3.org/2000/svg"><path d="M113.207 51.006V13h59.586v38.006h-59.586z" fill="#FF9201"/><path d="M172.793 51.006l-24.887-19.274a8.982 8.982 0 00-10.121-.03c-8.551 5.805-24.578 19.304-24.578 19.304h59.586z" fill="#BCDCFF"/><path d="M138.761 31.144h-.175l-25.38-18.138.001 38s16.027-13.498 24.577-19.304c.315-.213.645-.39.977-.558zM147.414 31.144h-.522c.345.176.688.364 1.013.588l24.888 19.274v-38l-25.379 18.138z" fill="#A7D0FE"/><path d="M172.793 13.006L147.906 32.28a8.982 8.982 0 01-10.121.03c-8.552-5.805-24.578-19.304-24.578-19.304h59.586z" fill="#fff"/><g clip-path="url(#clip0)"><path d="M148.862 62.739l-45.588-44.566c-5.692-5.565-14.857-5.565-20.549 0L37.138 62.74V134h111.724V62.739z" fill="#FF9201"/><rect x="53" y="30" width="80" height="104" rx="4" fill="#fff"/><g clip-path="url(#clip1)" fill="#2EC5CE"><path fill-rule="evenodd" clip-rule="evenodd" d="M73 65.5a7.5 7.5 0 100-15 7.5 7.5 0 000 15zm0 4.5c6.627 0 12-5.373 12-12s-5.373-12-12-12-12 5.373-12 12 5.373 12 12 12z"/><rect x="89" y="51" width="36" height="6" rx=".5"/><rect opacity=".4" x="89" y="60" width="16" height="5" rx=".5"/></g><path d="M148.862 134l-46.664-36.139a16.84 16.84 0 00-18.976-.056C67.187 108.69 37.138 134 37.138 134h111.724z" fill="#FFDC81"/><path d="M85.05 96.759h-.326L37.138 63.655V134s30.05-25.31 46.082-36.194c.59-.4 1.208-.73 1.83-1.047z" fill="#FFCA00"/><path d="M101.276 96.759h-.979a16.87 16.87 0 011.9 1.103L148.862 134V63.655L101.276 96.76z" fill="#FFB800"/></g><path d="M2.207 147.006V109h59.586v38.006H2.207z" fill="#FF9201"/><path d="M61.793 147.006l-24.887-19.274a8.982 8.982 0 00-10.12-.03c-8.553 5.805-24.579 19.304-24.579 19.304h59.586z" fill="#BCDCFF"/><path d="M27.76 127.144h-.174l-25.38-18.138.001 38s16.026-13.499 24.577-19.304c.315-.213.645-.389.977-.558zM36.414 127.144h-.522c.345.176.688.364 1.013.588l24.888 19.274v-38l-25.379 18.138z" fill="#A7D0FE"/><path d="M61.793 109.006L36.906 128.28a8.982 8.982 0 01-10.121.03c-8.552-5.805-24.578-19.304-24.578-19.304h59.586z" fill="#fff"/><circle cx="145" cy="122" r="24" fill="#fff"/><g opacity=".4" fill="#2EC5CE"><path d="M151 114.706a6.424 6.424 0 01-6.429 6.42 6.424 6.424 0 01-6.428-6.42 6.424 6.424 0 016.428-6.42 6.424 6.424 0 016.429 6.42zM157 135.679s-8.087.08-13.286 0c-4.197-.065-10.714 0-10.714 0s1.714-12.841 12-12.841 12 12.841 12 12.841z"/></g><circle cx="163" cy="104" r="10" fill="#2EC5CE"/><path fill-rule="evenodd" clip-rule="evenodd" d="M163 99.333c.322 0 .583.261.583.584v3.5h3.5a.583.583 0 110 1.166h-3.5v3.5a.584.584 0 11-1.166 0v-3.5h-3.5a.584.584 0 110-1.166h3.5v-3.5c0-.323.261-.584.583-.584z" fill="#fff"/><defs><clipPath id="clip0"><path fill="#fff" transform="translate(33 14)" d="M0 0h120v120H0z"/></clipPath><clipPath id="clip1"><path fill="#fff" transform="translate(61 46)" d="M0 0h64v24H0z"/></clipPath></defs></svg>