<svg width="162" height="48" fill="none" xmlns="http://www.w3.org/2000/svg"><g clip-path="url(#clip0)"><path d="M156 0H6a6 6 0 00-6 6v36a6 6 0 006 6h150a6 6 0 006-6V6a6 6 0 00-6-6z" fill="#000"/><path d="M156 .96A5.046 5.046 0 01161.04 6v36a5.048 5.048 0 01-5.04 5.04H6A5.046 5.046 0 01.96 42V6A5.046 5.046 0 016 .96h150zm0-.96H6a6.018 6.018 0 00-6 6v36a6.018 6.018 0 006 6h150a6.016 6.016 0 006-6V6a6.02 6.02 0 00-6-6z" fill="#A6A6A6"/><path d="M56.902 12.292a3.248 3.248 0 01-.894 2.403 3.492 3.492 0 01-2.645 1.066 3.708 3.708 0 01-3.74-3.76 3.71 3.71 0 013.74-3.762 3.713 3.713 0 011.478.302c.433.175.82.451 1.126.804l-.633.634a2.432 2.432 0 00-1.971-.855A2.783 2.783 0 0050.567 12a2.83 2.83 0 004.807 2.072c.37-.398.584-.916.603-1.458h-2.614v-.865h3.489c.033.179.05.36.05.543zM62.433 9.285h-3.278v2.283h2.956v.865h-2.956v2.282h3.278v.885H58.23V8.4h4.203v.885zM66.335 15.6h-.926V9.285h-2.011V8.4h4.948v.885h-2.011V15.6zM71.926 15.6V8.4h.924v7.2h-.924zM76.954 15.6h-.926V9.285h-2.01V8.4h4.947v.885h-2.01V15.6zM88.331 14.67a3.738 3.738 0 01-5.28 0 3.681 3.681 0 01-1.06-2.67 3.68 3.68 0 011.06-2.67 3.726 3.726 0 015.275.005A3.682 3.682 0 0189.392 12a3.686 3.686 0 01-1.061 2.67zm-4.596-.603a2.769 2.769 0 003.912 0 2.818 2.818 0 00.8-2.067 2.817 2.817 0 00-.8-2.066 2.768 2.768 0 00-3.912 0 2.821 2.821 0 00-.8 2.066 2.821 2.821 0 00.8 2.067zM90.69 15.6V8.4h1.126l3.5 5.601h.04l-.04-1.387V8.4h.925v7.2h-.966l-3.66-5.872h-.04l.04 1.387V15.6h-.925z" fill="#fff" stroke="#fff" stroke-width=".2" stroke-miterlimit="10"/><path d="M81.763 26.102a5.104 5.104 0 105.123 5.104 5.03 5.03 0 00-5.123-5.104zm0 8.197a3.102 3.102 0 112.88-3.093 2.952 2.952 0 01-2.88 3.093zm-11.176-8.197a5.103 5.103 0 105.123 5.104 5.031 5.031 0 00-5.123-5.104zm0 8.197a3.101 3.101 0 112.88-3.093 2.952 2.952 0 01-2.88 3.093zm-13.294-6.631v2.165h5.18a4.52 4.52 0 01-1.179 2.726 5.303 5.303 0 01-4.001 1.585 5.762 5.762 0 010-11.522 5.522 5.522 0 013.905 1.547l1.527-1.528a7.551 7.551 0 00-5.432-2.184 7.928 7.928 0 100 15.852 7.246 7.246 0 005.529-2.223 7.154 7.154 0 001.875-5.065 7.041 7.041 0 00-.116-1.353h-7.288zm54.369 1.682a4.736 4.736 0 00-4.369-3.248 4.845 4.845 0 00-3.498 1.522 4.85 4.85 0 00-1.316 3.582 5.005 5.005 0 001.449 3.628 4.98 4.98 0 003.616 1.475 5.076 5.076 0 004.253-2.261l-1.739-1.16a2.922 2.922 0 01-2.514 1.41 2.599 2.599 0 01-2.474-1.546l6.824-2.822-.232-.58zm-6.959 1.701a2.794 2.794 0 01.708-2.049 2.81 2.81 0 011.959-.928 1.977 1.977 0 011.895 1.082l-4.562 1.895zM99.154 36h2.243V20.998h-2.243V36zm-3.673-8.758h-.077a3.535 3.535 0 00-2.688-1.14 5.109 5.109 0 000 10.207 3.48 3.48 0 002.688-1.16h.077v.735c0 1.953-1.044 2.997-2.726 2.997a2.824 2.824 0 01-2.571-1.818l-1.953.812a4.864 4.864 0 004.524 3.016c2.63 0 4.853-1.546 4.853-5.316V26.41H95.48v.831zM92.91 34.3a3.104 3.104 0 010-6.186 2.876 2.876 0 012.726 3.112 2.85 2.85 0 01-2.726 3.074zm29.257-13.3h-5.366V36h2.239v-5.684h3.127a4.665 4.665 0 004.541-6.503 4.666 4.666 0 00-4.541-2.815zm.058 7.23h-3.185v-5.143h3.185a2.57 2.57 0 012.424 3.568 2.581 2.581 0 01-2.424 1.575zm13.838-2.155a4.205 4.205 0 00-3.995 2.297l1.987.83a2.13 2.13 0 012.046-1.1 2.155 2.155 0 012.355 1.93v.154a4.952 4.952 0 00-2.335-.579c-2.143 0-4.324 1.177-4.324 3.378a3.468 3.468 0 003.725 3.3 3.162 3.162 0 002.857-1.467h.077v1.158h2.161v-5.751c0-2.664-1.988-4.15-4.554-4.15zm-.271 8.222c-.733 0-1.756-.367-1.756-1.274 0-1.158 1.274-1.602 2.374-1.602a3.99 3.99 0 012.046.502 2.711 2.711 0 01-2.664 2.374zm12.7-7.894l-2.567 6.504h-.077l-2.664-6.504h-2.412l3.995 9.09-2.278 5.057h2.336l6.156-14.147h-2.489zM128.323 36h2.239V20.998h-2.239V36z" fill="#fff"/><path d="M12.523 9.046a2.402 2.402 0 00-.556 1.686V37.27a2.401 2.401 0 00.556 1.685l.088.087 14.867-14.866v-.351L12.611 8.959l-.088.087z" fill="url(#paint0_linear)"/><path d="M32.434 29.134l-4.955-4.957v-.351l4.956-4.957.112.064 5.871 3.336c1.677.953 1.677 2.512 0 3.465l-5.871 3.336-.113.064z" fill="url(#paint1_linear)"/><path d="M32.547 29.07L27.479 24 12.523 38.957a1.952 1.952 0 002.494.073l17.53-9.96z" fill="url(#paint2_linear)"/><path d="M32.547 18.932l-17.53-9.96a1.952 1.952 0 00-2.494.074L27.479 24l5.068-5.069z" fill="url(#paint3_linear)"/><path opacity=".2" d="M32.435 28.958l-17.418 9.897a1.999 1.999 0 01-2.405.013l-.09.09.09.086a1.998 1.998 0 002.405-.014l17.53-9.96-.112-.112z" fill="#000"/><path opacity=".12" d="M12.523 38.782a2.403 2.403 0 01-.556-1.686v.175a2.403 2.403 0 00.556 1.686l.089-.09-.09-.085zM38.418 25.558l-5.983 3.4.111.112 5.872-3.336a2.105 2.105 0 001.258-1.732 2.235 2.235 0 01-1.258 1.556z" fill="#000"/><path opacity=".25" d="M15.016 9.148l23.402 13.296A2.234 2.234 0 0139.676 24a2.103 2.103 0 00-1.258-1.733L15.016 8.973c-1.677-.953-3.049-.162-3.049 1.76v.174c0-1.92 1.372-2.712 3.05-1.76z" fill="#fff"/></g><defs><linearGradient id="paint0_linear" x1="26.16" y1="10.452" x2="6.021" y2="30.59" gradientUnits="userSpaceOnUse"><stop stop-color="#00A0FF"/><stop offset=".007" stop-color="#00A1FF"/><stop offset=".26" stop-color="#00BEFF"/><stop offset=".512" stop-color="#00D2FF"/><stop offset=".76" stop-color="#00DFFF"/><stop offset="1" stop-color="#00E3FF"/></linearGradient><linearGradient id="paint1_linear" x1="40.602" y1="24.002" x2="11.566" y2="24.002" gradientUnits="userSpaceOnUse"><stop stop-color="#FFE000"/><stop offset=".409" stop-color="#FFBD00"/><stop offset=".775" stop-color="orange"/><stop offset="1" stop-color="#FF9C00"/></linearGradient><linearGradient id="paint2_linear" x1="29.793" y1="26.755" x2="2.483" y2="54.065" gradientUnits="userSpaceOnUse"><stop stop-color="#FF3A44"/><stop offset="1" stop-color="#C31162"/></linearGradient><linearGradient id="paint3_linear" x1="8.757" y1=".212" x2="20.952" y2="12.406" gradientUnits="userSpaceOnUse"><stop stop-color="#32A071"/><stop offset=".069" stop-color="#2DA771"/><stop offset=".476" stop-color="#15CF74"/><stop offset=".801" stop-color="#06E775"/><stop offset="1" stop-color="#00F076"/></linearGradient><clipPath id="clip0"><path fill="#fff" d="M0 0h161.999v48H0z"/></clipPath></defs></svg>