<svg width="28" height="32" fill="none" xmlns="http://www.w3.org/2000/svg"><path d="M26 32H14a1.333 1.333 0 01-1.334-1.333V28A1.334 1.334 0 0114 26.667h12A1.333 1.333 0 0127.333 28v2.667A1.333 1.333 0 0126 32z" fill="#D6B1FF"/><path d="M26 0H2A1.333 1.333 0 00.667 1.333V4A1.333 1.333 0 002 5.333h24A1.333 1.333 0 0027.333 4V1.333A1.333 1.333 0 0026 0z" fill="#2EC5CE"/><path d="M26 8H2A1.333 1.333 0 00.667 9.333v13.334A1.333 1.333 0 002 24h24a1.333 1.333 0 001.333-1.333V9.333A1.333 1.333 0 0026 8z" fill="#8C30F5"/></svg>